# xmcd CD database file
#
# Track frame offsets:
#	150
#	50357
#	89742
#	124532
#	170507
#	199497
#	238882
#
# Disc length: 3715 seconds
#
# Revision: 0
# Processed by: cddbd v1.4PL0 Copyright (c) Steve Scherf et al.
# Submitted via: CDex 1.51
#
DISCID=630e8107
DTITLE=Horacio Icasto Trio - Debussiana
DYEAR=2003
DGENRE=Jazz
TTITLE0=debussy. jardins sous la pluie
TTITLE1=ravel. concerto pour piano en sol majeur
TTITLE2=prokofiev. sonata no. 7
TTITLE3=gershwin. predule no. 2
TTITLE4=ravel. pavane pour une infante defunte
TTITLE5=piazzolla. maria de buenos aires
TTITLE6=icasto. debussiana
EXTD=YEAR: 2003
EXTT0=
EXTT1=
EXTT2=
EXTT3=
EXTT4=
EXTT5=
EXTT6=
PLAYORDER=
